<?xml version="1.0" encoding="utf-8"?>
<!-- Generator: Adobe Illustrator 25.4.1, SVG Export Plug-In . SVG Version: 6.00 Build 0)  -->
<svg version="1.1" id="Layer_2" xmlns="http://www.w3.org/2000/svg" xmlns:xlink="http://www.w3.org/1999/xlink" x="0px" y="0px"
	 width="288px" height="288px" viewBox="0 0 288 288" style="enable-background:new 0 0 288 288;" xml:space="preserve">
<style type="text/css">
	.st0{fill:#FFFFFF;}
	.st1{fill:#FF0000;}
	.st2{stroke:#000000;stroke-width:3;stroke-miterlimit:10;}
	.st3{fill:url(#SVGID_1_);}
</style>
<g>
	<path class="st0" d="M13.7,101.2c8.4-10.1,22.8-11.6,22.8-11.6l245.5,0.1l0.6,92.3H4.7L5,120.5C5,120.5,5.3,111.4,13.7,101.2z"/>
</g>
<path class="st1" d="M38.6,88.9c-19,0-34.5,15.4-34.5,34.5v78.1h99.1h1.8h178.3V88.9H38.6z M281.2,174.4H105.1V91.1h176.1V174.4z
	 M38.6,91.1h64.7v83.3h-97v-51C6.3,105.6,20.8,91.1,38.6,91.1z"/>
<g>
	<polygon class="st2" points="145,124.3 135.5,124.3 135.5,116.4 144,116.4 144,114 135.5,114 135.5,107.1 144.5,107.1 144.5,104.7 
		132.7,104.7 132.7,126.7 145,126.7 	"/>
	<polygon class="st2" points="158.2,126.7 158.2,107.1 164.9,107.1 164.9,104.7 148.7,104.7 148.7,107.1 155.3,107.1 155.3,126.7 	
		"/>
	<polygon class="st2" points="172.2,116.4 182.8,116.4 182.8,126.7 185.7,126.7 185.7,104.7 182.8,104.7 182.8,113.9 172.2,113.9 
		172.2,104.7 169.3,104.7 169.3,126.7 172.2,126.7 	"/>
	<rect x="192.5" y="104.7" class="st2" width="2.8" height="22"/>
	<path class="st2" d="M212.6,106.7c1.8,0,3.4,0.4,4.4,0.9l0.7-2.3c-0.8-0.4-2.5-1-5.2-1c-6.8,0-11.5,4.7-11.5,11.5
		c0,7.2,4.7,11.1,10.9,11.1c2.7,0,4.8-0.5,5.8-1l-0.6-2.2c-1.1,0.6-2.9,0.9-4.6,0.9c-5.3,0-8.4-3.5-8.4-8.8
		C204,110,207.4,106.7,212.6,106.7z"/>
	<path class="st2" d="M232.5,104.7h-3.4l-7.5,22h2.9l2.3-6.9h7.8l2.3,6.9h3L232.5,104.7z M227.4,117.6l2.2-6.4
		c0.4-1.3,0.8-2.7,1.1-4h0.1c0.3,1.3,0.7,2.6,1.1,4l2.2,6.3H227.4z"/>
	<polygon class="st2" points="248,124.3 248,104.7 245.2,104.7 245.2,126.7 257.4,126.7 257.4,124.3 	"/>
	<polygon class="st2" points="148.7,148.1 138.1,148.1 138.1,138.9 135.3,138.9 135.3,160.9 138.1,160.9 138.1,150.6 148.7,150.6 
		148.7,160.9 151.6,160.9 151.6,138.9 148.7,138.9 	"/>
	<path class="st2" d="M164.3,138.9l-7.5,22h2.9l2.3-6.9h7.8l2.3,6.9h3l-7.5-22H164.3z M162.6,151.8l2.2-6.4c0.4-1.3,0.8-2.7,1.1-4
		h0.1c0.3,1.3,0.7,2.6,1.1,4l2.2,6.3H162.6z"/>
	<path class="st2" d="M190.2,141c1.8,0,3.4,0.4,4.4,0.9l0.7-2.3c-0.8-0.4-2.5-1-5.2-1c-6.8,0-11.5,4.7-11.5,11.5
		c0,7.2,4.7,11.1,10.9,11.1c2.7,0,4.8-0.5,5.8-1l-0.6-2.2c-1.1,0.6-2.9,0.9-4.6,0.9c-5.3,0-8.4-3.5-8.4-8.8
		C181.6,144.3,185,141,190.2,141z"/>
	<path class="st2" d="M215.7,138.9h-3.5l-6.7,8.2c-0.6,0.7-1.1,1.5-1.7,2.3h-0.1v-10.6h-2.8v22h2.8v-8.4l2.1-2.4l7.2,10.8h3.4
		l-8.6-12.7L215.7,138.9z"/>
	<polygon class="st2" points="223.2,150.6 231.8,150.6 231.8,148.3 223.2,148.3 223.2,141.3 232.3,141.3 232.3,138.9 220.4,138.9 
		220.4,160.9 232.7,160.9 232.7,158.5 223.2,158.5 	"/>
	<path class="st2" d="M247.8,150.5L247.8,150.5c2.3-0.9,4.1-2.8,4.1-5.7c0-1.7-0.6-3.2-1.7-4.2c-1.4-1.2-3.3-1.8-6.4-1.8
		c-2,0-4,0.2-5.4,0.5v21.7h2.8v-9.5h2.7c2.6,0.1,3.7,1.2,4.4,4.3c0.6,2.7,1.1,4.6,1.5,5.2h2.9c-0.5-0.8-1-3-1.7-6
		C250.5,152.6,249.5,151,247.8,150.5z M244.1,149.2h-2.9v-8c0.5-0.1,1.4-0.3,2.8-0.3c3,0,5.1,1.3,5.1,4.1
		C249.1,147.6,247.2,149.2,244.1,149.2z"/>
</g>
<g>
	<path d="M21.4,121.5c-2.4,2.9-3.6,6.5-3.6,10.9c0,4.7,1.2,8.6,3.6,11.5c2.4,2.9,5.5,4.4,9.4,4.4c1.1,0,2.4-0.2,3.8-0.7v-7
		c-1.3,0.4-2.4,0.7-3.3,0.7c-1.9,0-3.5-0.8-4.6-2.3c-1.2-1.5-1.7-3.6-1.7-6.3c0-2.5,0.6-4.5,1.7-6.1c1.1-1.6,2.6-2.4,4.3-2.4
		c1.1,0,2.3,0.2,3.6,0.6v-7c-1.2-0.4-2.5-0.6-4-0.6C26.9,117.2,23.8,118.6,21.4,121.5"/>
	<polygon points="50.8,118 50.8,147.4 64.4,147.4 64.4,141.2 57.5,141.2 57.5,135.8 63.4,135.8 63.4,129.7 57.5,129.7 57.5,124.3 
		64.3,124.3 64.3,118 	"/>
	<polygon points="85.4,118.8 85.4,129.7 79.5,129.7 79.5,118.8 72.8,118.8 72.8,148.2 79.5,148.2 79.5,136 85.4,136 85.4,148.2 
		92.1,148.2 92.1,118.8 	"/>
	<radialGradient id="SVGID_1_" cx="41.4579" cy="132.2541" r="23.4934" gradientUnits="userSpaceOnUse">
		<stop  offset="0" style="stop-color:#FFFFFF"/>
		<stop  offset="1" style="stop-color:#FF0000"/>
	</radialGradient>
	<rect x="40.2" y="99.1" class="st3" width="2.6" height="66.4"/>
	<g>
		<path d="M12.1,157.1c-0.4,0.5-0.6,1.1-0.6,1.8c0,0.8,0.2,1.4,0.6,1.9c0.4,0.5,0.9,0.7,1.6,0.7c0.2,0,0.4,0,0.6-0.1v-1.2
			c-0.2,0.1-0.4,0.1-0.6,0.1c-0.3,0-0.6-0.1-0.8-0.4c-0.2-0.3-0.3-0.6-0.3-1c0-0.4,0.1-0.7,0.3-1c0.2-0.3,0.4-0.4,0.7-0.4
			c0.2,0,0.4,0,0.6,0.1v-1.2c-0.2-0.1-0.4-0.1-0.7-0.1C13,156.4,12.5,156.6,12.1,157.1"/>
		<path d="M15.8,158.9c0.1-0.1,0.2-0.2,0.3-0.2c0.1,0,0.2,0.1,0.3,0.2c0.1,0.1,0.1,0.3,0.1,0.5h-0.8C15.7,159.2,15.8,159,15.8,158.9
			 M15.1,158.4c-0.2,0.3-0.4,0.8-0.4,1.3c0,0.6,0.1,1,0.4,1.4c0.3,0.3,0.6,0.5,1,0.5c0.7,0,1.1-0.4,1.3-1.1h-0.9
			c0,0.1-0.1,0.2-0.1,0.3c-0.1,0.1-0.2,0.1-0.2,0.1c-0.3,0-0.4-0.2-0.4-0.8h1.8c0-0.6-0.1-1-0.2-1.2c-0.1-0.3-0.3-0.5-0.5-0.6
			c-0.2-0.2-0.5-0.2-0.7-0.2C15.7,158,15.3,158.1,15.1,158.4"/>
		<path d="M19.2,158.6L19.2,158.6l0-0.6h-1v3.4h1.1v-1.7c0-0.5,0.2-0.8,0.6-0.8c0.1,0,0.2,0,0.4,0V158l-0.2,0
			C19.7,158,19.4,158.2,19.2,158.6"/>
		<polygon points="21.1,157.2 21.1,158.1 20.6,158.1 20.6,159 21.1,159 21.1,161.5 22.1,161.5 22.1,159 22.5,159 22.5,158.1 
			22.1,158.1 22.1,157.2 		"/>
		<path d="M23.1,161.5h1.1v-3.4h-1.1V161.5z M23.3,156.7c-0.1,0.1-0.2,0.2-0.2,0.4c0,0.2,0.1,0.3,0.2,0.4c0.1,0.1,0.2,0.2,0.4,0.2
			c0.2,0,0.3-0.1,0.4-0.2c0.1-0.1,0.2-0.2,0.2-0.4c0-0.2-0.1-0.3-0.2-0.4c-0.1-0.1-0.2-0.2-0.4-0.2
			C23.5,156.5,23.4,156.5,23.3,156.7"/>
		<path d="M26.3,156.3c-0.4,0-0.7,0.1-0.9,0.3c-0.2,0.2-0.3,0.4-0.3,0.7v0.8h-0.4v0.9h0.4v2.5h1.1V159h0.5v-0.9h-0.5v-0.4
			c0-0.1,0-0.2,0.1-0.2l0.2-0.1h0.3v-1.1H26.3"/>
		<path d="M27.2,161.5h1.1v-3.4h-1.1V161.5z M27.3,156.7c-0.1,0.1-0.2,0.2-0.2,0.4c0,0.2,0.1,0.3,0.2,0.4c0.1,0.1,0.2,0.2,0.4,0.2
			c0.2,0,0.3-0.1,0.4-0.2c0.1-0.1,0.2-0.2,0.2-0.4c0-0.2-0.1-0.3-0.2-0.4c-0.1-0.1-0.2-0.2-0.4-0.2
			C27.6,156.5,27.4,156.5,27.3,156.7"/>
		<path d="M30,158.9c0.1-0.1,0.2-0.2,0.3-0.2c0.1,0,0.2,0.1,0.3,0.2c0.1,0.1,0.1,0.3,0.1,0.5h-0.8C29.9,159.2,29.9,159,30,158.9
			 M29.3,158.4c-0.3,0.3-0.4,0.8-0.4,1.3c0,0.6,0.1,1,0.4,1.4c0.2,0.3,0.6,0.5,1,0.5c0.7,0,1.1-0.4,1.3-1.1h-0.9
			c0,0.1-0.1,0.2-0.1,0.3c-0.1,0.1-0.2,0.1-0.2,0.1c-0.3,0-0.4-0.2-0.4-0.8h1.8c0-0.6-0.1-1-0.2-1.2c-0.1-0.3-0.3-0.5-0.5-0.6
			c-0.2-0.2-0.5-0.2-0.7-0.2C29.9,158,29.5,158.1,29.3,158.4"/>
		<path d="M33.3,160.4c-0.1-0.1-0.1-0.3-0.1-0.6c0-0.6,0.1-0.9,0.4-0.9c0.3,0,0.4,0.3,0.4,0.8c0,0.3,0,0.5-0.1,0.6
			c-0.1,0.2-0.2,0.2-0.3,0.2C33.5,160.6,33.3,160.5,33.3,160.4 M34,156.3v2.2c-0.2-0.3-0.5-0.5-0.8-0.5c-0.3,0-0.6,0.2-0.8,0.5
			c-0.2,0.3-0.3,0.8-0.3,1.3c0,0.6,0.1,1,0.3,1.3c0.2,0.3,0.4,0.5,0.8,0.5c0.3,0,0.6-0.2,0.8-0.6h0v0.4H35v-5.2H34"/>
	</g>
	<g>
		<polygon points="48.4,156.5 48.4,161.5 50.6,161.5 50.6,160.4 49.5,160.4 49.5,159.5 50.5,159.5 50.5,158.5 49.5,158.5 
			49.5,157.6 50.6,157.6 50.6,156.5 		"/>
		<polygon points="51.5,157.2 51.5,158.1 51.1,158.1 51.1,159 51.5,159 51.5,161.5 52.6,161.5 52.6,159 53,159 53,158.1 52.6,158.1 
			52.6,157.2 		"/>
		<path d="M53.6,156.3v5.2h1.1v-2c0-0.3,0.1-0.5,0.3-0.5c0.1,0,0.2,0,0.2,0.1c0.1,0.1,0.1,0.2,0.1,0.3v2.1h1.1v-2.6
			c0-0.3-0.1-0.5-0.2-0.7c-0.1-0.2-0.3-0.2-0.6-0.2c-0.3,0-0.6,0.2-0.9,0.5h0v-2.2H53.6"/>
		<path d="M57.1,161.5h1.1v-3.4h-1.1V161.5z M57.3,156.7c-0.1,0.1-0.2,0.2-0.2,0.4c0,0.2,0.1,0.3,0.2,0.4c0.1,0.1,0.2,0.2,0.4,0.2
			c0.2,0,0.3-0.1,0.4-0.2c0.1-0.1,0.2-0.2,0.2-0.4c0-0.2-0.1-0.3-0.2-0.4c-0.1-0.1-0.2-0.2-0.4-0.2
			C57.5,156.5,57.4,156.5,57.3,156.7"/>
		<path d="M59.2,158.5c-0.2,0.3-0.4,0.8-0.4,1.3c0,0.6,0.1,1,0.3,1.3c0.2,0.3,0.5,0.5,0.9,0.5c0.3,0,0.5-0.1,0.8-0.3v-0.9
			c-0.1,0.1-0.3,0.1-0.4,0.1c-0.2,0-0.3-0.1-0.4-0.2c-0.1-0.1-0.2-0.3-0.2-0.6c0-0.2,0.1-0.4,0.2-0.6c0.1-0.1,0.2-0.2,0.4-0.2
			c0.1,0,0.2,0,0.4,0.1v-0.9c-0.3-0.2-0.5-0.3-0.8-0.3C59.8,158,59.5,158.1,59.2,158.5"/>
		<path d="M62.4,159.8c0-0.6,0.1-0.8,0.4-0.8c0.3,0,0.4,0.3,0.4,0.8c0,0.6-0.1,0.9-0.4,0.9C62.5,160.6,62.4,160.3,62.4,159.8
			 M61.6,158.4c-0.2,0.3-0.3,0.8-0.3,1.3c0,0.6,0.1,1,0.3,1.3c0.2,0.3,0.4,0.5,0.8,0.5c0.2,0,0.3,0,0.4-0.1c0.1-0.1,0.2-0.2,0.4-0.4
			h0v0.4h1.1v-3.4h-1.1v0.4h0c-0.1-0.2-0.2-0.3-0.4-0.4c-0.1-0.1-0.3-0.1-0.4-0.1C62.1,158,61.8,158.1,61.6,158.4"/>
		<rect x="65.1" y="156.3" width="1.1" height="5.2"/>
	</g>
	<g>
		<polygon points="75.4,156.5 75.4,158.4 74.4,158.4 74.4,156.5 73.3,156.5 73.3,161.5 74.4,161.5 74.4,159.4 75.4,159.4 
			75.4,161.5 76.5,161.5 76.5,156.5 		"/>
		<path d="M78.3,159.8c0-0.6,0.1-0.8,0.4-0.8c0.3,0,0.4,0.3,0.4,0.8c0,0.6-0.1,0.9-0.4,0.9C78.5,160.6,78.3,160.3,78.3,159.8
			 M77.6,158.4c-0.2,0.3-0.3,0.8-0.3,1.3c0,0.6,0.1,1,0.3,1.3c0.2,0.3,0.4,0.5,0.8,0.5c0.2,0,0.3,0,0.4-0.1c0.1-0.1,0.2-0.2,0.4-0.4
			h0v0.4h1.1v-3.4h-1.1v0.4h0c-0.1-0.2-0.2-0.3-0.4-0.4c-0.1-0.1-0.3-0.1-0.4-0.1C78,158,77.8,158.1,77.6,158.4"/>
		<path d="M81.2,158.5c-0.2,0.3-0.4,0.8-0.4,1.3c0,0.6,0.1,1,0.3,1.3c0.2,0.3,0.5,0.5,0.9,0.5c0.3,0,0.5-0.1,0.8-0.3v-0.9
			c-0.1,0.1-0.3,0.1-0.4,0.1c-0.2,0-0.3-0.1-0.4-0.2c-0.1-0.1-0.2-0.3-0.2-0.6c0-0.2,0.1-0.4,0.2-0.6c0.1-0.1,0.2-0.2,0.4-0.2
			c0.1,0,0.2,0,0.4,0.1v-0.9c-0.3-0.2-0.5-0.3-0.8-0.3C81.7,158,81.4,158.1,81.2,158.5"/>
		<polygon points="83.5,156.3 83.5,161.5 84.6,161.5 84.6,159.8 84.6,159.8 85.4,161.5 86.6,161.5 85.5,159.6 86.6,158.1 
			85.3,158.1 84.6,159.3 84.6,159.3 84.6,156.3 		"/>
		<path d="M87.8,158.9c0.1-0.1,0.2-0.2,0.3-0.2c0.1,0,0.2,0.1,0.3,0.2c0.1,0.1,0.1,0.3,0.1,0.5h-0.8C87.7,159.2,87.7,159,87.8,158.9
			 M87.1,158.4c-0.2,0.3-0.4,0.8-0.4,1.3c0,0.6,0.1,1,0.4,1.4c0.2,0.3,0.6,0.5,1,0.5c0.7,0,1.1-0.4,1.3-1.1h-0.9
			c0,0.1-0.1,0.2-0.1,0.3c-0.1,0.1-0.2,0.1-0.2,0.1c-0.3,0-0.4-0.2-0.4-0.8h1.8c0-0.6-0.1-1-0.2-1.2c-0.1-0.3-0.3-0.5-0.5-0.6
			c-0.2-0.2-0.5-0.2-0.7-0.2C87.7,158,87.3,158.1,87.1,158.4"/>
		<path d="M91.1,158.6L91.1,158.6l0-0.6h-1v3.4h1.1v-1.7c0-0.5,0.2-0.8,0.6-0.8c0.1,0,0.2,0,0.4,0V158l-0.2,0
			C91.7,158,91.4,158.2,91.1,158.6"/>
	</g>
</g>
<g>
	<path class="st0" d="M72.4,184c0,0.8-0.1,1.5-0.4,2.1c-0.2,0.6-0.6,1.1-1.1,1.5c-0.5,0.4-1,0.7-1.7,0.9c-0.7,0.2-1.5,0.3-2.4,0.3
		h-1.2v4.4c0,0.1,0,0.1-0.1,0.2c0,0.1-0.1,0.1-0.2,0.1c-0.1,0-0.2,0.1-0.4,0.1c-0.2,0-0.4,0-0.7,0c-0.3,0-0.5,0-0.7,0
		c-0.2,0-0.3-0.1-0.4-0.1c-0.1,0-0.2-0.1-0.2-0.1s-0.1-0.1-0.1-0.2v-12.4c0-0.3,0.1-0.6,0.3-0.8c0.2-0.2,0.4-0.3,0.7-0.3h3.3
		c0.3,0,0.6,0,0.9,0c0.3,0,0.6,0.1,1.1,0.2c0.4,0.1,0.8,0.2,1.3,0.5c0.4,0.2,0.8,0.5,1.1,0.8s0.5,0.7,0.7,1.2
		C72.3,182.9,72.4,183.4,72.4,184z M69.4,184.2c0-0.5-0.1-0.9-0.3-1.2c-0.2-0.3-0.4-0.5-0.6-0.7c-0.2-0.1-0.5-0.2-0.8-0.3
		c-0.3,0-0.6-0.1-0.8-0.1h-1.2v4.7H67c0.4,0,0.8-0.1,1.1-0.2c0.3-0.1,0.5-0.3,0.7-0.5c0.2-0.2,0.3-0.5,0.4-0.8
		C69.4,184.9,69.4,184.6,69.4,184.2z"/>
	<path class="st0" d="M93.6,193.3c0,0.1,0,0.1,0,0.2c0,0.1-0.1,0.1-0.2,0.1c-0.1,0-0.3,0.1-0.5,0.1c-0.2,0-0.5,0-0.8,0
		c-0.3,0-0.5,0-0.7,0c-0.2,0-0.3,0-0.4-0.1c-0.1,0-0.2-0.1-0.2-0.1c0-0.1-0.1-0.1-0.1-0.2l-1.2-3.1c-0.1-0.3-0.3-0.7-0.4-0.9
		c-0.1-0.3-0.3-0.5-0.5-0.7c-0.2-0.2-0.4-0.3-0.6-0.4c-0.2-0.1-0.5-0.1-0.8-0.1h-0.9v5.3c0,0.1,0,0.1-0.1,0.2c0,0.1-0.1,0.1-0.2,0.1
		c-0.1,0-0.2,0.1-0.4,0.1c-0.2,0-0.4,0-0.7,0c-0.3,0-0.5,0-0.7,0c-0.2,0-0.3-0.1-0.4-0.1c-0.1,0-0.2-0.1-0.2-0.1
		c0-0.1-0.1-0.1-0.1-0.2v-12.5c0-0.3,0.1-0.5,0.2-0.7c0.2-0.1,0.4-0.2,0.6-0.2h3.6c0.4,0,0.7,0,0.9,0s0.4,0,0.6,0.1
		c0.6,0.1,1.1,0.2,1.5,0.4c0.4,0.2,0.8,0.4,1.1,0.8c0.3,0.3,0.5,0.7,0.7,1.1c0.2,0.4,0.2,0.9,0.2,1.5c0,0.5-0.1,0.9-0.2,1.3
		c-0.1,0.4-0.3,0.7-0.5,1c-0.2,0.3-0.5,0.6-0.8,0.8c-0.3,0.2-0.7,0.4-1.1,0.5c0.2,0.1,0.4,0.2,0.6,0.4c0.2,0.1,0.4,0.3,0.5,0.5
		c0.2,0.2,0.3,0.4,0.5,0.7c0.1,0.3,0.3,0.6,0.4,0.9l1.2,2.7c0.1,0.3,0.2,0.5,0.2,0.6C93.6,193.1,93.6,193.2,93.6,193.3z M90,183.9
		c0-0.5-0.1-0.8-0.3-1.2c-0.2-0.3-0.5-0.5-1-0.7c-0.1,0-0.3-0.1-0.5-0.1c-0.2,0-0.4,0-0.8,0h-1.3v3.9h1.4c0.4,0,0.7,0,1-0.1
		c0.3-0.1,0.5-0.2,0.7-0.4c0.2-0.2,0.3-0.4,0.4-0.6C90,184.5,90,184.2,90,183.9z"/>
	<path class="st0" d="M115.8,192.6c0.1,0.3,0.1,0.5,0.2,0.6c0,0.1,0,0.3-0.1,0.3c-0.1,0.1-0.2,0.1-0.4,0.1c-0.2,0-0.5,0-0.8,0
		c-0.4,0-0.6,0-0.8,0c-0.2,0-0.4,0-0.5-0.1c-0.1,0-0.2-0.1-0.2-0.1s-0.1-0.1-0.1-0.2l-0.9-2.8h-5.2l-0.9,2.7c0,0.1-0.1,0.2-0.1,0.3
		c0,0.1-0.1,0.1-0.2,0.2c-0.1,0-0.2,0.1-0.4,0.1c-0.2,0-0.4,0-0.7,0c-0.3,0-0.6,0-0.8,0c-0.2,0-0.3-0.1-0.4-0.2
		c-0.1-0.1-0.1-0.2-0.1-0.3s0.1-0.3,0.2-0.6l4.3-12.3c0-0.1,0.1-0.2,0.1-0.3c0.1-0.1,0.1-0.1,0.3-0.2c0.1,0,0.3-0.1,0.5-0.1
		c0.2,0,0.5,0,0.9,0c0.4,0,0.8,0,1,0c0.2,0,0.4,0,0.6,0.1c0.1,0,0.2,0.1,0.3,0.2c0.1,0.1,0.1,0.2,0.2,0.3L115.8,192.6z M109.5,182.5
		L109.5,182.5l-2,5.9h3.9L109.5,182.5z"/>
	<path class="st0" d="M135.9,191.5c0,0.2,0,0.3,0,0.5c0,0.1,0,0.2,0,0.3c0,0.1,0,0.2-0.1,0.2c0,0.1-0.1,0.1-0.2,0.2
		c-0.1,0.1-0.2,0.2-0.5,0.3c-0.2,0.1-0.5,0.3-0.8,0.4c-0.3,0.1-0.7,0.2-1.1,0.3c-0.4,0.1-0.9,0.1-1.3,0.1c-0.9,0-1.8-0.1-2.6-0.4
		c-0.8-0.3-1.4-0.7-1.9-1.3c-0.5-0.6-0.9-1.3-1.2-2.2c-0.3-0.9-0.4-1.9-0.4-3c0-1.2,0.2-2.2,0.5-3.1c0.3-0.9,0.8-1.7,1.3-2.3
		c0.6-0.6,1.2-1.1,2-1.4c0.8-0.3,1.7-0.5,2.6-0.5c0.4,0,0.8,0,1.1,0.1c0.4,0.1,0.7,0.1,1,0.3c0.3,0.1,0.6,0.2,0.8,0.4
		c0.2,0.1,0.4,0.3,0.5,0.3c0.1,0.1,0.2,0.2,0.2,0.2c0,0.1,0.1,0.1,0.1,0.2c0,0.1,0,0.2,0,0.4c0,0.1,0,0.3,0,0.5c0,0.2,0,0.4,0,0.5
		c0,0.1,0,0.3-0.1,0.4c0,0.1-0.1,0.2-0.1,0.2c0,0-0.1,0.1-0.2,0.1c-0.1,0-0.2-0.1-0.4-0.2c-0.2-0.1-0.4-0.3-0.6-0.4
		c-0.3-0.2-0.6-0.3-0.9-0.4c-0.4-0.1-0.8-0.2-1.3-0.2c-0.5,0-1,0.1-1.5,0.3c-0.4,0.2-0.8,0.5-1.1,1c-0.3,0.4-0.5,0.9-0.7,1.5
		c-0.2,0.6-0.2,1.3-0.2,2c0,0.8,0.1,1.5,0.3,2.1c0.2,0.6,0.4,1.1,0.7,1.5c0.3,0.4,0.7,0.7,1.1,0.9c0.4,0.2,0.9,0.3,1.5,0.3
		c0.5,0,0.9-0.1,1.3-0.2c0.4-0.1,0.7-0.2,0.9-0.4c0.3-0.1,0.5-0.3,0.6-0.4c0.2-0.1,0.3-0.2,0.4-0.2c0.1,0,0.1,0,0.2,0
		c0,0,0.1,0.1,0.1,0.2c0,0.1,0,0.2,0.1,0.4C135.9,191.1,135.9,191.3,135.9,191.5z"/>
	<path class="st0" d="M156,181c0,0.2,0,0.4,0,0.5c0,0.1,0,0.3-0.1,0.4c0,0.1-0.1,0.2-0.1,0.2c-0.1,0-0.1,0.1-0.2,0.1h-3.5v11.1
		c0,0.1,0,0.1-0.1,0.2s-0.1,0.1-0.2,0.1c-0.1,0-0.3,0.1-0.4,0.1c-0.2,0-0.4,0-0.7,0c-0.3,0-0.5,0-0.7,0c-0.2,0-0.3-0.1-0.4-0.1
		c-0.1,0-0.2-0.1-0.2-0.1c0-0.1-0.1-0.1-0.1-0.2v-11.1h-3.5c-0.1,0-0.1,0-0.2-0.1c0,0-0.1-0.1-0.1-0.2c0-0.1-0.1-0.2-0.1-0.4
		c0-0.1,0-0.3,0-0.5c0-0.2,0-0.4,0-0.5c0-0.1,0-0.3,0.1-0.4c0-0.1,0.1-0.2,0.1-0.2c0,0,0.1-0.1,0.2-0.1h9.7c0.1,0,0.1,0,0.2,0.1
		c0.1,0,0.1,0.1,0.1,0.2s0.1,0.2,0.1,0.4C156,180.6,156,180.8,156,181z"/>
	<path class="st0" d="M169.3,193.2c0,0.1,0,0.1-0.1,0.2c0,0.1-0.1,0.1-0.2,0.1c-0.1,0-0.2,0.1-0.4,0.1c-0.2,0-0.4,0-0.7,0
		c-0.3,0-0.5,0-0.7,0c-0.2,0-0.3-0.1-0.4-0.1c-0.1,0-0.2-0.1-0.2-0.1c0-0.1-0.1-0.1-0.1-0.2v-13c0-0.1,0-0.1,0.1-0.2
		c0-0.1,0.1-0.1,0.2-0.1c0.1,0,0.3-0.1,0.4-0.1c0.2,0,0.4,0,0.7,0c0.3,0,0.5,0,0.7,0c0.2,0,0.3,0,0.4,0.1c0.1,0,0.2,0.1,0.2,0.1
		c0,0.1,0.1,0.1,0.1,0.2V193.2z"/>
	<path class="st0" d="M190.7,191.5c0,0.2,0,0.3,0,0.5c0,0.1,0,0.2,0,0.3c0,0.1,0,0.2-0.1,0.2s-0.1,0.1-0.2,0.2
		c-0.1,0.1-0.2,0.2-0.5,0.3c-0.2,0.1-0.5,0.3-0.8,0.4c-0.3,0.1-0.7,0.2-1.1,0.3c-0.4,0.1-0.9,0.1-1.3,0.1c-0.9,0-1.8-0.1-2.6-0.4
		s-1.4-0.7-1.9-1.3c-0.5-0.6-0.9-1.3-1.2-2.2c-0.3-0.9-0.4-1.9-0.4-3c0-1.2,0.2-2.2,0.5-3.1c0.3-0.9,0.8-1.7,1.3-2.3
		c0.6-0.6,1.2-1.1,2-1.4c0.8-0.3,1.7-0.5,2.6-0.5c0.4,0,0.8,0,1.1,0.1c0.4,0.1,0.7,0.1,1,0.3c0.3,0.1,0.6,0.2,0.8,0.4
		c0.2,0.1,0.4,0.3,0.5,0.3c0.1,0.1,0.2,0.2,0.2,0.2c0,0.1,0.1,0.1,0.1,0.2c0,0.1,0,0.2,0,0.4c0,0.1,0,0.3,0,0.5c0,0.2,0,0.4,0,0.5
		c0,0.1,0,0.3-0.1,0.4c0,0.1-0.1,0.2-0.1,0.2c-0.1,0-0.1,0.1-0.2,0.1c-0.1,0-0.2-0.1-0.4-0.2c-0.2-0.1-0.4-0.3-0.6-0.4
		c-0.3-0.2-0.6-0.3-0.9-0.4c-0.4-0.1-0.8-0.2-1.3-0.2c-0.5,0-1,0.1-1.5,0.3c-0.4,0.2-0.8,0.5-1.1,1c-0.3,0.4-0.5,0.9-0.7,1.5
		c-0.2,0.6-0.2,1.3-0.2,2c0,0.8,0.1,1.5,0.3,2.1s0.4,1.1,0.7,1.5c0.3,0.4,0.7,0.7,1.1,0.9c0.4,0.2,0.9,0.3,1.5,0.3
		c0.5,0,0.9-0.1,1.3-0.2c0.4-0.1,0.7-0.2,0.9-0.4c0.3-0.1,0.5-0.3,0.6-0.4c0.2-0.1,0.3-0.2,0.4-0.2c0.1,0,0.1,0,0.2,0
		c0,0,0.1,0.1,0.1,0.2c0,0.1,0,0.2,0.1,0.4C190.7,191.1,190.7,191.3,190.7,191.5z"/>
	<path class="st0" d="M212.9,192.6c0.1,0.3,0.1,0.5,0.2,0.6c0,0.1,0,0.3-0.1,0.3c-0.1,0.1-0.2,0.1-0.4,0.1c-0.2,0-0.5,0-0.8,0
		c-0.4,0-0.6,0-0.8,0c-0.2,0-0.4,0-0.5-0.1c-0.1,0-0.2-0.1-0.2-0.1s-0.1-0.1-0.1-0.2l-0.9-2.8h-5.2l-0.9,2.7c0,0.1-0.1,0.2-0.1,0.3
		s-0.1,0.1-0.2,0.2c-0.1,0-0.2,0.1-0.4,0.1c-0.2,0-0.4,0-0.7,0c-0.3,0-0.6,0-0.8,0c-0.2,0-0.3-0.1-0.4-0.2c-0.1-0.1-0.1-0.2-0.1-0.3
		c0-0.1,0.1-0.3,0.2-0.6l4.3-12.3c0-0.1,0.1-0.2,0.1-0.3c0.1-0.1,0.1-0.1,0.3-0.2c0.1,0,0.3-0.1,0.5-0.1c0.2,0,0.5,0,0.9,0
		c0.4,0,0.8,0,1,0c0.2,0,0.4,0,0.6,0.1c0.1,0,0.2,0.1,0.3,0.2c0.1,0.1,0.1,0.2,0.2,0.3L212.9,192.6z M206.5,182.5L206.5,182.5
		l-2,5.9h3.9L206.5,182.5z"/>
	<path class="st0" d="M231.2,192.5c0,0.2,0,0.4,0,0.5c0,0.1,0,0.3-0.1,0.4c0,0.1-0.1,0.2-0.1,0.2c-0.1,0-0.1,0.1-0.2,0.1h-6.3
		c-0.2,0-0.4-0.1-0.6-0.2c-0.2-0.1-0.2-0.4-0.2-0.7v-12.5c0-0.1,0-0.1,0.1-0.2c0-0.1,0.1-0.1,0.2-0.1c0.1,0,0.3-0.1,0.4-0.1
		c0.2,0,0.4,0,0.7,0c0.3,0,0.5,0,0.7,0c0.2,0,0.3,0,0.4,0.1c0.1,0,0.2,0.1,0.2,0.1c0,0.1,0.1,0.1,0.1,0.2v11.1h4.3
		c0.1,0,0.1,0,0.2,0.1c0.1,0,0.1,0.1,0.1,0.2c0,0.1,0.1,0.2,0.1,0.4C231.2,192.1,231.2,192.2,231.2,192.5z"/>
</g>
</svg>
